<svg width="125" height="125" viewBox="0 0 125 125" fill="none" xmlns="http://www.w3.org/2000/svg">
<rect width="124.501" height="124.501" rx="6" fill="#004D40" fill-opacity="0.25"/>
<path d="M73.364 61.1231L69.4138 65.0733L61.7448 72.7423L39.6581 94.829C39.2676 95.2195 38.6344 95.2195 38.2439 94.829L33.0011 89.5861C32.6105 89.1956 32.6105 88.5624 33.0011 88.1719L66.7095 54.4634C67.0144 54.1586 67.0867 53.6939 66.9099 53.3006C66.079 51.4526 65.5793 49.4289 65.5793 47.2723C65.5793 39.0009 72.2863 32.2939 80.5577 32.2939C82.4796 32.2939 84.296 32.6909 85.9766 33.3653C86.6092 33.6193 86.7411 34.4319 86.259 34.9139L76.272 44.901C75.8815 45.2915 75.8815 45.9247 76.272 46.3152L81.5148 51.558C81.9054 51.9486 82.5385 51.9486 82.9291 51.558L92.9161 41.571C93.3982 41.0889 94.2108 41.2208 94.4647 41.8535C95.1392 43.534 95.5361 45.3504 95.5361 47.2723C95.5361 55.5438 88.8291 62.2508 80.5577 62.2508C78.4008 62.2508 76.3743 61.7509 74.5256 60.9222C74.1326 60.7461 73.6685 60.8186 73.364 61.1231Z" fill="#31CCEC"/>
<path d="M80.5575 32.2939C82.4794 32.294 84.2959 32.6908 85.9765 33.3652C86.2964 33.4937 86.4879 33.7652 86.537 34.0645C85.6138 33.873 84.6591 33.7686 83.6767 33.7686C75.4053 33.7686 68.6983 40.4758 68.6981 48.7471C68.6981 50.9036 69.1974 52.9275 70.0282 54.7754C70.205 55.1686 70.1329 55.6336 69.828 55.9385L36.12 89.6465C35.7295 90.037 35.7295 90.671 36.12 91.0615L39.7724 94.7139L39.6581 94.8291C39.2677 95.2195 38.6346 95.2194 38.244 94.8291L33.0009 89.5859C32.6104 89.1954 32.6104 88.5624 33.0009 88.1719L66.7089 54.4639C67.0137 54.1591 67.0867 53.694 66.9101 53.3008C66.0792 51.4528 65.579 49.429 65.579 47.2725C65.579 39.0011 72.2861 32.2939 80.5575 32.2939ZM92.9159 41.5713C93.398 41.0892 94.2108 41.2208 94.4647 41.8535C94.736 42.5293 94.961 43.2275 95.1347 43.9453L85.2743 53.8057C84.8838 54.1961 84.2507 54.1962 83.8602 53.8057L81.8202 51.7656C82.1865 51.9263 82.6287 51.8575 82.9286 51.5576L92.9159 41.5713Z" fill="#2B869A"/>
<path d="M28.9653 42.2795C28.9653 37.9262 30.926 33.397 34.1045 30.2755C34.6933 29.6973 35.6983 30.1518 35.9585 30.935C36.7422 33.2936 38.8858 35.6224 42.2795 35.6224C47.7948 35.6224 52.2651 40.0926 52.2651 45.608C52.2651 46.6335 52.0954 47.6166 51.8035 48.5438C51.6723 48.9605 51.7913 49.4222 52.1319 49.696C54.1224 51.2965 56.1012 52.9052 58.0365 54.5607C58.4771 54.9375 58.5007 55.6093 58.091 56.0194L52.692 61.4236C52.2815 61.8344 51.6085 61.8106 51.2317 61.3687C49.5775 59.4283 47.9737 57.4454 46.3764 55.4588C46.1031 55.119 45.6427 54.9999 45.2267 55.1306C44.2946 55.4234 43.3094 55.5936 42.2795 55.5936C34.9234 55.5936 28.9653 49.6355 28.9653 42.2795Z" fill="#F2C037"/>
<path d="M84.6393 93.8827C77.8964 88.4416 71.5057 82.6052 65.4373 76.4478C65.0527 76.0576 65.0564 75.4304 65.4438 75.043L71.7144 68.7724C72.1018 68.385 72.729 68.3813 73.1192 68.7659C79.2766 74.8343 85.1128 81.2251 90.5474 87.9679L93.8107 92.0115C94.1318 92.4093 94.1011 92.9852 93.7396 93.3467L90.0175 97.0688C89.6563 97.43 89.0809 97.4609 88.683 97.1404L84.6393 93.8827Z" fill="#F2C037"/>
<path d="M66.7163 73.7695C66.7637 73.8988 66.838 74.0205 66.9409 74.125C73.0093 80.2824 79.4002 86.1195 86.1431 91.5605L90.187 94.8174C90.5848 95.1378 91.1598 95.1073 91.521 94.7461L93.9702 92.2959C94.101 92.6525 94.0217 93.0646 93.7397 93.3467L90.0171 97.0693C89.6559 97.4302 89.0808 97.4609 88.6831 97.1406L84.6392 93.8828C77.8964 88.4418 71.5054 82.6056 65.437 76.4482C65.0524 76.058 65.0564 75.4304 65.4438 75.043L66.7163 73.7695ZM32.5522 32.0352C31.2222 34.4918 30.4692 37.2584 30.4692 39.957C30.4693 47.3129 36.4269 53.2703 43.7827 53.2705C44.8126 53.2705 45.798 53.1004 46.73 52.8076C47.1459 52.6769 47.6071 52.796 47.8804 53.1357C49.4777 55.1222 51.0807 57.1056 52.7349 59.0459C53.1116 59.4878 53.7854 59.5114 54.1958 59.1006L58.3208 54.9707C58.4501 55.322 58.3764 55.734 58.0913 56.0195L52.6919 61.4238C52.2815 61.8345 51.6087 61.8108 51.2319 61.3691C49.5777 59.4287 47.9738 57.4456 46.3765 55.459C46.1033 55.1193 45.643 55.0003 45.2271 55.1309C44.2951 55.4236 43.3096 55.5937 42.2798 55.5938C34.9237 55.5938 28.9653 49.6354 28.9653 42.2793C28.9654 38.6878 30.3003 34.9768 32.5522 32.0352Z" fill="#C0982B"/>
</svg>
