<svg width="125" height="125" viewBox="0 0 125 125" fill="none" xmlns="http://www.w3.org/2000/svg">
<rect width="124.501" height="124.501" rx="6" fill="#004D40" fill-opacity="0.25"/>
<path d="M61.8113 84.3048C50.6079 84.3048 42.7484 83.9971 37.7968 83.7026C32.8196 83.407 28.9791 80.5986 28.575 76.9588C28.1723 73.3378 27.7515 67.5903 27.7515 59.3975C27.7515 51.2047 28.1723 45.4572 28.575 41.8362C28.9791 38.1964 32.8196 35.388 37.7968 35.0924C42.7484 34.798 50.6079 34.4902 61.8113 34.4902C73.0147 34.4902 80.8742 34.798 85.8257 35.0924C90.803 35.388 94.6434 38.1964 95.0476 41.8362C95.4503 45.4572 95.8711 51.2047 95.8711 59.3975C95.8711 67.5903 95.4503 73.3378 95.0476 76.9588C94.6434 80.5986 90.803 83.407 85.8257 83.7026C80.8742 83.9971 73.0147 84.3048 61.8113 84.3048Z" fill="#31CCEC"/>
<path d="M94.8706 40.9336C94.9523 41.228 95.0132 41.5287 95.0474 41.8359C95.45 45.4569 95.8716 51.2047 95.8716 59.3975C95.8716 67.5903 95.45 73.338 95.0474 76.959C94.6431 80.5987 90.8029 83.4066 85.8257 83.7021C80.8741 83.9966 73.0144 84.3047 61.811 84.3047C50.6078 84.3047 42.7479 83.9966 37.7964 83.7021C32.8194 83.4064 28.979 80.5986 28.5747 76.959C28.5126 76.4007 28.4525 75.7914 28.3911 75.1309C29.2772 78.324 32.8798 80.702 37.437 80.9727C42.3885 81.2671 50.2478 81.5742 61.4507 81.5742C72.6539 81.5742 80.5138 81.2671 85.4653 80.9727C90.4426 80.6771 94.2828 77.8683 94.687 74.2285C95.0897 70.6075 95.5112 64.8598 95.5112 56.667C95.5112 49.7373 95.2071 44.5573 94.8706 40.9336Z" fill="#1D6170"/>
<path d="M95.5109 47.2206H28.1104C28.2496 45.0731 28.4131 43.2842 28.5751 41.8362C28.9793 38.1964 32.8182 35.388 37.7954 35.0924C42.7485 34.798 50.6065 34.4902 61.8114 34.4902C73.0148 34.4902 80.8728 34.798 85.8258 35.0924C90.8031 35.388 94.6435 38.1964 95.0477 41.8362C95.2082 43.2842 95.3717 45.072 95.5109 47.2206Z" fill="#26A69A"/>
<path d="M95.5107 47.2207H28.1104C28.1328 46.8745 28.158 46.5376 28.1816 46.21H95.4395C95.463 46.5376 95.4883 46.8744 95.5107 47.2207Z" fill="#187169"/>
<path fill-rule="evenodd" clip-rule="evenodd" d="M34.9468 41.1322C34.9468 40.6918 35.1217 40.2694 35.4331 39.958C35.7445 39.6466 36.1669 39.4717 36.6073 39.4717H38.8212C39.2616 39.4717 39.684 39.6466 39.9954 39.958C40.3068 40.2694 40.4817 40.6918 40.4817 41.1322C40.4817 41.5726 40.3068 41.9949 39.9954 42.3063C39.684 42.6177 39.2616 42.7927 38.8212 42.7927H36.6073C36.1669 42.7927 35.7445 42.6177 35.4331 42.3063C35.1217 41.9949 34.9468 41.5726 34.9468 41.1322ZM45.4632 39.4717C45.0228 39.4717 44.6004 39.6466 44.289 39.958C43.9776 40.2694 43.8027 40.6918 43.8027 41.1322C43.8027 41.5726 43.9776 41.9949 44.289 42.3063C44.6004 42.6177 45.0228 42.7927 45.4632 42.7927H47.6772C48.1176 42.7927 48.5399 42.6177 48.8513 42.3063C49.1627 41.9949 49.3377 41.5726 49.3377 41.1322C49.3377 40.6918 49.1627 40.2694 48.8513 39.958C48.5399 39.6466 48.1176 39.4717 47.6772 39.4717H45.4632Z" fill="#1D1D1D"/>
<rect x="48.9595" y="87.6975" width="25.7036" height="4.39364" rx="2" fill="#26A69A"/>
<path d="M74.0942 88.303C74.4455 88.6634 74.6636 89.1545 74.6636 89.6975V90.0911C74.6636 91.1955 73.7679 92.0908 72.6636 92.0911H50.9595C49.9505 92.0911 49.1188 91.3436 48.9819 90.3723C49.3452 90.7453 49.8519 90.9777 50.4136 90.9778H72.1177C73.2221 90.9776 74.1177 90.0823 74.1177 88.9778V88.5842C74.1177 88.4886 74.1072 88.395 74.0942 88.303Z" fill="#1A7970"/>
</svg>
