<svg width="125" height="125" viewBox="0 0 125 125" fill="none" xmlns="http://www.w3.org/2000/svg">
<rect width="124.501" height="124.501" rx="6" fill="#004D40" fill-opacity="0.25"/>
<path d="M44.0435 55.2524H45.254V54.168C45.2613 51.0149 46.1509 47.9267 47.822 45.2528C49.4932 42.5789 51.8793 40.4261 54.7104 39.0377C53.8723 37.1075 52.527 35.4404 50.8174 34.2133C49.1079 32.9862 47.0979 32.2451 45.001 32.0686C42.9041 31.8922 40.7985 32.2869 38.908 33.211C37.0174 34.1351 35.4124 35.554 34.2635 37.3169C33.1145 39.0799 32.4645 41.1212 32.3825 43.2239C32.3005 45.3266 32.7896 47.4123 33.7977 49.2594C34.8059 51.1065 36.2955 52.6461 38.1084 53.7146C39.9212 54.7831 41.9897 55.3407 44.094 55.328L44.0435 55.2524ZM33.3262 78.3765C33.3216 77.1065 33.6646 75.8594 34.318 74.7704C34.9715 73.6813 35.9104 72.7919 37.0332 72.1983C41.5711 69.8468 46.4188 68.1489 51.4322 67.1548C48.6055 64.869 46.5968 61.7277 45.7079 58.2028H44.0435C36.6676 58.1793 29.397 59.9536 22.8611 63.3723C22.5695 63.5285 22.3262 63.7614 22.1573 64.0458C21.9884 64.3302 21.9004 64.6554 21.9029 64.9862V81.0999H33.3262V78.3765Z" fill="#26A69A"/>
<path d="M45.7075 58.2031C45.7109 58.2165 45.7149 58.2298 45.7183 58.2432C39.0615 58.5279 32.5397 60.276 26.6206 63.3721C26.329 63.5283 26.0854 63.7615 25.9165 64.0459C25.7477 64.3303 25.6602 64.6556 25.6626 64.9863V81.0996H21.9028V64.9863C21.9004 64.6555 21.9888 64.3303 22.1577 64.0459C22.3266 63.7616 22.5694 63.5282 22.8608 63.3721C29.3967 59.9534 36.6675 58.1797 44.0435 58.2031H45.7075ZM38.9077 33.2109C40.7983 32.2869 42.9046 31.8919 45.0015 32.0684C45.304 32.0938 45.6046 32.1319 45.9028 32.1807C44.7849 32.3635 43.6944 32.709 42.6675 33.2109C40.7769 34.135 39.1719 35.5544 38.0229 37.3174C36.8742 39.0802 36.2241 41.1211 36.1421 43.2236C36.0601 45.3264 36.549 47.4127 37.5571 49.2598C38.5653 51.1068 40.0549 52.6464 41.8677 53.7148C42.9241 54.3375 44.0679 54.7849 45.2544 55.0488V55.252H44.0435L44.0942 55.3281C41.9899 55.3408 39.9208 54.7833 38.1079 53.7148C36.2952 52.6464 34.8055 51.1067 33.7974 49.2598C32.7892 47.4127 32.3003 45.3264 32.3823 43.2236C32.4644 41.1212 33.1145 39.0802 34.2632 37.3174C35.4121 35.5545 37.0172 34.135 38.9077 33.2109Z" fill="#208178"/>
<path d="M79.2971 55.1513V54.067C79.2827 50.9154 78.3872 47.8307 76.7116 45.1615C75.0361 42.4922 72.6474 40.3448 69.8154 38.9619C70.6497 37.0605 71.9811 35.4192 73.6696 34.2107C75.358 33.0022 77.3411 32.2713 79.4099 32.0948C81.4788 31.9183 83.557 32.3028 85.4257 33.2078C87.2945 34.1129 88.8847 35.505 90.0289 37.2376C91.1732 38.9702 91.8292 40.9792 91.928 43.0533C92.0267 45.1273 91.5645 47.1896 90.59 49.023C89.6154 50.8565 88.1647 52.3934 86.3903 53.4718C84.616 54.5503 82.5838 55.1305 80.5075 55.1513H79.2971Z" fill="#26A69A"/>
<path d="M90.1828 74.7704C90.8362 75.8595 91.1792 77.1065 91.1746 78.3765V81.1H102.598V64.9862C102.6 64.6554 102.512 64.3303 102.344 64.0458C102.175 63.7614 101.931 63.5285 101.64 63.3723C95.1038 59.9537 87.8333 58.1793 80.4573 58.2028H78.793C77.904 61.7277 75.8954 64.869 73.0687 67.1549C78.0821 68.1489 82.9297 69.8469 87.4677 72.1983C88.5904 72.7919 89.5294 73.6814 90.1828 74.7704Z" fill="#26A69A"/>
<path d="M80.457 58.2034C87.833 58.1799 95.1038 59.9537 101.64 63.3723C101.931 63.5285 102.175 63.7617 102.344 64.0461C102.513 64.3305 102.6 64.6559 102.598 64.9866V81.0999H91.1748V81.0745H99.8281V64.9612C99.8306 64.6304 99.7421 64.3052 99.5732 64.0208C99.4044 63.7364 99.1616 63.5031 98.8701 63.3469C92.8244 60.1847 86.1496 58.4303 79.3447 58.2034H80.457ZM79.4102 32.095C81.4789 31.9186 83.5571 32.3033 85.4258 33.2083C87.2944 34.1133 88.8851 35.505 90.0293 37.2375C91.1735 38.97 91.8289 40.9791 91.9277 43.053C92.0265 45.1269 91.5642 47.1893 90.5898 49.0227C89.6154 50.8561 88.1648 52.3935 86.3906 53.4719C84.6164 54.5503 82.5839 55.1307 80.5078 55.1516H79.2969V55.0032C80.8225 54.7795 82.2935 54.2528 83.6201 53.4465C85.3944 52.3681 86.8458 50.8308 87.8203 48.9973C88.7947 47.1639 89.2569 45.1015 89.1582 43.0276C89.0594 40.9537 88.403 38.9447 87.2588 37.2122C86.1146 35.4798 84.5247 34.0879 82.6562 33.1829C81.5339 32.6393 80.3354 32.2845 79.1094 32.1252C79.2093 32.1141 79.3098 32.1035 79.4102 32.095Z" fill="#208178"/>
<path d="M62.2509 65.9194C68.8802 65.9194 74.2543 60.6131 74.2543 54.0674C74.2543 47.5217 68.8802 42.2153 62.2509 42.2153C55.6216 42.2153 50.2476 47.5217 50.2476 54.0674C50.2476 60.6131 55.6216 65.9194 62.2509 65.9194Z" fill="#31CCEC"/>
<path d="M39.4036 76.6115C46.4469 72.9054 54.2915 70.9832 62.2503 71.0133V92.4731H38.3697V78.3263C38.3672 77.9729 38.4624 77.6257 38.6449 77.3231C38.8273 77.0205 39.0899 76.7742 39.4036 76.6115Z" fill="#31CCEC"/>
<path d="M85.097 76.6115C78.0537 72.9054 70.2091 70.9832 62.2503 71.0133V92.4731H86.1309V78.3263C86.1334 77.9729 86.0382 77.6257 85.8557 77.3231C85.6733 77.0205 85.4107 76.7742 85.097 76.6115Z" fill="#31CCEC"/>
<path d="M62.2505 71.0134C62.8329 71.0112 63.4147 71.0202 63.9956 71.0388C56.6389 71.2752 49.4232 73.1766 42.896 76.6111C42.5824 76.7738 42.3197 77.0204 42.1372 77.323C41.9548 77.6255 41.8594 77.9727 41.8618 78.3259V92.4734H38.3696V78.3269C38.3671 77.9735 38.4626 77.6256 38.645 77.323C38.8275 77.0205 39.0902 76.7747 39.4038 76.6121C46.4471 72.906 54.2917 70.9834 62.2505 71.0134ZM62.2505 42.2156C62.8432 42.2156 63.4259 42.2586 63.9956 42.3406C58.1946 43.1759 53.7399 48.1076 53.7397 54.0671C53.7397 60.0272 58.195 64.9587 63.9966 65.7937C63.4265 65.8757 62.8436 65.9197 62.2505 65.9197C55.6214 65.9197 50.2478 60.6136 50.2476 54.0681C50.2476 47.5224 55.6212 42.2156 62.2505 42.2156Z" fill="#2B869A"/>
</svg>
