<svg width="125" height="125" viewBox="0 0 125 125" fill="none" xmlns="http://www.w3.org/2000/svg">
<rect width="124.501" height="124.501" rx="7" fill="#004D40" fill-opacity="0.25"/>
<path d="M62.0937 62.3082L83.5855 83.771C80.0558 87.2955 75.7133 89.8979 70.9404 91.3486C66.1545 92.8033 61.0836 93.0551 56.1772 92.0816C51.2707 91.1081 46.6801 88.9394 42.812 85.7677C38.944 82.596 35.918 78.5192 34.0022 73.8985C32.0864 69.2778 31.3398 64.2559 31.8287 59.2777C32.3176 54.2995 34.0269 49.5188 36.8051 45.3591C39.5832 41.1994 43.3445 37.7891 47.7557 35.4305C52.1668 33.0719 57.0916 31.8378 62.0937 31.8374V62.3082Z" fill="#31CCEC"/>
<path d="M41.3735 39.9937C40.7045 40.8003 40.0738 41.6412 39.4888 42.5171C36.7106 46.6768 35.0011 51.4579 34.5122 56.436C34.0234 61.4141 34.7703 66.4356 36.686 71.0562C38.6019 75.6768 41.6276 79.7536 45.4956 82.9253C49.3636 86.097 53.9544 88.2663 58.8608 89.2397C63.7671 90.2131 68.8378 89.9609 73.6235 88.5063C77.1425 87.4368 80.426 85.7389 83.3237 83.5093L83.5854 83.771C80.0558 87.2955 75.7128 89.8974 70.9399 91.3481C66.1541 92.8027 61.0836 93.055 56.1772 92.0815C51.2708 91.1081 46.68 88.9397 42.812 85.7681C38.9441 82.5965 35.9183 78.5194 34.0024 73.8989C32.0866 69.2783 31.3397 64.256 31.8286 59.2778C32.3175 54.2997 34.027 49.5186 36.8052 45.3589C38.1192 43.3915 39.655 41.5938 41.3735 39.9937Z" fill="#2B869A"/>
<path d="M92.5071 62.3081H62.0942L83.5787 83.7637L83.6149 83.7999C86.4411 80.9808 88.6816 77.6306 90.2077 73.9422C91.7338 70.2537 92.5153 66.2998 92.5071 62.3081Z" fill="#26A69A"/>
<path d="M63.7456 62.3081L84.4233 82.9575C84.1587 83.2427 83.8897 83.525 83.6138 83.8003L83.5776 83.7632L62.0933 62.3081H63.7456Z" fill="#208178"/>
<path d="M73.7873 23.0645C72.4283 23.0645 71.3304 24.1452 71.3304 25.4829V30.3199C69.9714 30.3199 68.8735 31.4007 68.8735 32.7384C68.8735 34.0761 69.9714 35.1569 71.3304 35.1569V37.5753C69.9714 37.5753 68.8735 38.6561 68.8735 39.9938C68.8735 41.3315 69.9714 42.4123 71.3304 42.4123V54.5047C71.3304 55.8424 72.4283 56.9232 73.7873 56.9232C75.1462 56.9232 76.2441 55.8424 76.2441 54.5047V49.6677H82.3863C87.6379 49.6677 92.1908 46.7202 94.425 42.4123H95.8991C97.258 42.4123 98.356 41.3315 98.356 39.9938C98.356 38.6561 97.258 37.5753 95.8991 37.5753H95.8453C95.8837 37.1748 95.8991 36.7742 95.8991 36.3661C95.8991 35.958 95.8837 35.5574 95.8453 35.1569H95.8991C97.258 35.1569 98.356 34.0761 98.356 32.7384C98.356 31.4007 97.258 30.3199 95.8991 30.3199H94.425C92.1908 26.012 87.6379 23.0645 82.3863 23.0645H73.7873ZM88.4056 30.3199H76.2441V27.9014H82.3863C84.728 27.9014 86.8547 28.8235 88.4056 30.3199ZM76.2441 35.1569H90.9009C90.9546 35.5499 90.9854 35.958 90.9854 36.3661C90.9854 36.7742 90.9546 37.1823 90.9009 37.5753H76.2441V35.1569ZM88.4056 42.4123C86.8547 43.9087 84.728 44.8308 82.3863 44.8308H76.2441V42.4123H88.4056Z" fill="#F2C037"/>
<path d="M73.0845 24.0645C73.0845 23.5122 73.5322 23.0645 74.0845 23.0645H78.2063C78.7585 23.0645 79.2063 23.5122 79.2063 24.0645V54.9232C79.2063 56.0277 78.3108 56.9232 77.2062 56.9232H74.0845C73.5322 56.9232 73.0845 56.4755 73.0845 55.9232V24.0645Z" fill="#F2C037"/>
<path d="M76.4741 23.0645C75.1153 23.0645 74.0173 24.1449 74.0171 25.4824V30.3193C72.6581 30.3193 71.5601 31.4006 71.5601 32.7383C71.5601 34.076 72.6581 35.1572 74.0171 35.1572V37.5752C72.6581 37.5752 71.5601 38.6564 71.5601 39.9941C71.5603 41.3317 72.6583 42.4121 74.0171 42.4121V54.5049C74.0172 55.8425 75.1153 56.9229 76.4741 56.9229H74.0054C73.972 56.9228 73.9392 56.9205 73.9067 56.917C73.8672 56.9188 73.8276 56.9228 73.7876 56.9229C72.4287 56.9229 71.3307 55.8425 71.3306 54.5049V42.4121C69.9717 42.4121 68.8737 41.3317 68.8735 39.9941C68.8735 38.6564 69.9716 37.5752 71.3306 37.5752V35.1572C69.9716 35.1572 68.8735 34.076 68.8735 32.7383C68.8736 31.4006 69.9716 30.3203 71.3306 30.3203V25.4834C71.3306 24.1457 72.4286 23.0645 73.7876 23.0645H76.4741ZM76.5903 56.916C76.6237 56.9197 76.6575 56.9228 76.6919 56.9229H76.4741C76.5131 56.9228 76.5518 56.9178 76.5903 56.916ZM91.0923 42.4121C89.5414 43.9085 87.4145 44.8311 85.0728 44.8311H82.3862C84.5814 44.8311 86.5878 44.0206 88.1079 42.6865L88.4058 42.4121H91.0923ZM93.5874 35.1572C93.6411 35.5501 93.6724 35.9582 93.6724 36.3662C93.6724 36.7742 93.6411 37.1823 93.5874 37.5752H90.9009C90.9546 37.1823 90.9858 36.7742 90.9858 36.3662C90.9858 36.0601 90.9683 35.7538 90.937 35.4541L90.9009 35.1572H93.5874ZM85.0728 27.9014C87.4143 27.9014 89.5414 28.823 91.0923 30.3193H88.4048C86.8539 28.8233 84.7276 27.9014 82.3862 27.9014H85.0728Z" fill="#C0982B"/>
</svg>
