<svg width="125" height="125" viewBox="0 0 125 125" fill="none" xmlns="http://www.w3.org/2000/svg">
<rect width="124.501" height="124.501" rx="6" fill="#004D40" fill-opacity="0.25"/>
<path d="M62.2495 62.3084L83.7412 83.7712C80.2116 87.2957 75.8691 89.8982 71.0962 91.3489C66.3103 92.8036 61.2394 93.0553 56.3329 92.0818C51.4264 91.1083 46.8358 88.9397 42.9678 85.768C39.0998 82.5962 36.0738 78.5194 34.158 73.8987C32.2421 69.278 31.4956 64.2561 31.9845 59.2779C32.4734 54.2998 34.1827 49.519 36.9608 45.3593C39.739 41.1996 43.5003 37.7894 47.9114 35.4308C52.3226 33.0722 57.2474 31.838 62.2495 31.8376V62.3084Z" fill="#31CCEC"/>
<path d="M41.5293 39.9939C40.8602 40.8005 40.2295 41.6414 39.6445 42.5173C36.8664 46.677 35.1569 51.4581 34.668 56.4363C34.1792 61.4143 34.926 66.4358 36.8418 71.0564C38.7576 75.6771 41.7834 79.7538 45.6514 82.9255C49.5194 86.0972 54.1101 88.2665 59.0166 89.24C63.9229 90.2134 68.9935 89.9612 73.7793 88.5066C77.2982 87.437 80.5817 85.7392 83.4795 83.5095L83.7412 83.7712C80.2116 87.2958 75.8686 89.8977 71.0957 91.3484C66.3099 92.803 61.2394 93.0552 56.333 92.0818C51.4266 91.1083 46.8358 88.9399 42.9678 85.7683C39.0999 82.5967 36.074 78.5197 34.1582 73.8992C32.2424 69.2785 31.4955 64.2562 31.9844 59.2781C32.4733 54.2999 34.1828 49.5188 36.9609 45.3591C38.2749 43.3917 39.8107 41.594 41.5293 39.9939Z" fill="#2B869A"/>
<path d="M92.6628 62.3083H62.25L83.7345 83.7639L83.7707 83.8001C86.5968 80.9811 88.8374 77.6309 90.3635 73.9424C91.8896 70.254 92.671 66.3001 92.6628 62.3083Z" fill="#26A69A"/>
<path d="M63.9014 62.3083L84.5791 82.9578C84.3144 83.243 84.0455 83.5253 83.7695 83.8005L83.7334 83.7634L62.249 62.3083H63.9014Z" fill="#208178"/>
<path d="M77.7127 26.7145V26.1007V26.0854C77.7127 24.3975 79.3145 23.0166 81.2722 23.0166C83.2299 23.0166 84.8317 24.3975 84.8317 26.0854V26.6991H86.2555C88.2132 26.6991 89.815 28.08 89.815 29.7679C89.815 31.4557 88.2132 32.8366 86.2555 32.8366H77.8017C76.5737 32.8366 75.577 33.6959 75.577 34.7546C75.577 35.6906 76.3601 36.4884 77.4279 36.6419L84.8495 37.7159C89.3701 38.3604 92.6626 41.7207 92.6626 45.664C92.6626 49.6687 89.2811 52.983 84.8317 53.6121V54.3333C84.8317 56.0211 83.2299 57.402 81.2722 57.402C79.3145 57.402 77.7127 56.0211 77.7127 54.3333V53.7195H73.4413C71.4836 53.7195 69.8818 52.3386 69.8818 50.6507C69.8818 48.9629 71.4836 47.582 73.4413 47.582L83.3189 47.5973C84.5469 47.5973 85.5436 46.7381 85.5436 45.6794C85.5436 44.7434 84.7605 43.9455 83.6927 43.7921L76.2711 42.718C71.7505 42.0736 68.458 38.7133 68.458 34.7699C68.458 30.3509 72.587 26.7605 77.7127 26.7145Z" fill="#F2C037"/>
<path d="M80.0879 53.7197V54.333C80.0879 55.6623 81.0814 56.8008 82.46 57.2246C82.0881 57.339 81.6884 57.4023 81.2725 57.4023C79.3147 57.4023 77.7129 56.0208 77.7129 54.333V53.7197H80.0879ZM75.6523 47.585C73.77 47.6594 72.2571 49.0101 72.2568 50.6504C72.2568 52.3382 73.8587 53.7197 75.8164 53.7197H73.4414C71.4837 53.7197 69.8818 52.3382 69.8818 50.6504C69.8821 48.9627 71.4838 47.582 73.4414 47.582L75.6523 47.585ZM81.2725 23.0166C81.6887 23.0166 82.0889 23.0788 82.4609 23.1934C81.082 23.6169 80.0881 24.7555 80.0879 26.085V26.7148C74.9622 26.7609 70.833 30.3515 70.833 34.7705C70.8333 38.7135 74.1254 42.0732 78.6455 42.7178L86.0674 43.792C87.1352 43.9454 87.918 44.7437 87.918 45.6797C87.9178 46.7383 86.9213 47.5977 85.6934 47.5977L83.4033 47.5938C84.5921 47.5554 85.5437 46.7139 85.5439 45.6797C85.5439 44.7437 84.7602 43.9454 83.6924 43.792L76.2715 42.7178C71.7509 42.0733 68.458 38.7129 68.458 34.7695C68.4583 30.3507 72.5874 26.7609 77.7129 26.7148V26.085C77.7131 24.3973 79.3149 23.0166 81.2725 23.0166Z" fill="#C0982B"/>
</svg>
