<svg width="125" height="125" viewBox="0 0 125 125" fill="none" xmlns="http://www.w3.org/2000/svg">
<rect width="124.501" height="124.501" rx="6" fill="#004D40" fill-opacity="0.25"/>
<path d="M96.681 80.9632H35.773C34.6629 80.9617 33.5653 80.728 32.5508 80.2772C31.5363 79.8263 30.6273 79.1683 29.8821 78.3454C29.137 77.5224 28.5722 76.5527 28.224 75.4986C27.8758 74.4444 27.7519 73.3291 27.8603 72.2243C28.1149 70.2336 29.0916 68.4057 30.6049 67.0877C32.1182 65.7696 34.0629 65.0531 36.0696 65.0742H96.681C97.0322 65.0742 97.369 65.2137 97.6173 65.462C97.8656 65.7103 98.0051 66.0471 98.0051 66.3983V79.6391C98.0051 79.9903 97.8656 80.3271 97.6173 80.5754C97.369 80.8237 97.0322 80.9632 96.681 80.9632Z" fill="#FDFEFF"/>
<path d="M76.6613 57.1298H27.829C27.4778 57.1298 27.141 56.9903 26.8927 56.742C26.6444 56.4937 26.5049 56.1569 26.5049 55.8057V47.8612C26.5049 47.51 26.6444 47.1732 26.8927 46.9249C27.141 46.6766 27.4778 46.5371 27.829 46.5371H76.8202C77.6043 46.5368 78.3788 46.7107 79.0876 47.0461C79.7964 47.3816 80.4218 47.8702 80.9188 48.4768C81.4158 49.0833 81.7719 49.7927 81.9614 50.5536C82.1509 51.3145 82.169 52.108 82.0146 52.8768C81.7547 54.0969 81.0784 55.1886 80.1016 55.9646C79.1249 56.7406 77.9086 57.1526 76.6613 57.1298Z" fill="#FDFEFF"/>
<path d="M98.0058 86.2596H36.1975C32.7873 86.3059 29.4859 85.0603 26.9561 82.773C24.4264 80.4857 22.8557 77.3259 22.5594 73.9283C22.4306 72.1147 22.6795 70.2941 23.2903 68.5816C23.9011 66.8691 24.8605 65.3019 26.1079 63.9792C27.3473 62.6566 28.8442 61.6017 30.5065 60.8791C32.1688 60.1566 33.9613 59.7818 35.7738 59.7778H98.0058C99.0593 59.7778 100.07 60.1963 100.815 60.9413C101.56 61.6862 101.978 62.6966 101.978 63.7501C101.972 64.8018 101.552 65.8087 100.808 66.5524C100.064 67.296 99.0575 67.7164 98.0058 67.7224H36.0651C34.7154 67.6988 33.404 68.171 32.3792 69.0495C31.3543 69.9279 30.6871 71.1517 30.5039 72.4891C30.4285 73.2262 30.5098 73.9711 30.7426 74.6746C30.9754 75.3781 31.3543 76.0245 31.8545 76.5712C32.3508 77.1182 32.9556 77.5558 33.6304 77.856C34.3052 78.1562 35.0352 78.3126 35.7738 78.315H98.0058C99.0593 78.315 100.07 78.7335 100.815 79.4785C101.56 80.2234 101.978 81.2338 101.978 82.2873C101.972 83.339 101.552 84.3459 100.808 85.0896C100.064 85.8333 99.0575 86.2537 98.0058 86.2596Z" fill="#F2C037"/>
<path d="M100.653 83.6113H38.8451C35.4349 83.6577 32.1335 82.4121 29.6037 80.1248C27.074 77.8375 25.5033 74.6777 25.207 71.2801C24.9834 68.1279 25.9049 65.0009 27.8022 62.4736C26.0338 63.7864 24.6259 65.5249 23.7092 67.5275C22.7925 69.5301 22.3968 71.7318 22.5589 73.9283C22.8551 77.3259 24.4258 80.4856 26.9556 82.773C29.4853 85.0603 32.7868 86.3059 36.1969 86.2595H98.0053C98.8574 86.2584 99.6863 85.982 100.369 85.4717C101.051 84.9614 101.55 84.2443 101.792 83.4273C101.424 83.5437 101.04 83.6057 100.653 83.6113Z" fill="#C0982B"/>
<path d="M76.5021 62.4261H27.8287C26.7752 62.4261 25.7648 62.0076 25.0199 61.2627C24.275 60.5177 23.8564 59.5074 23.8564 58.4538C23.8624 57.4022 24.2828 56.3952 25.0264 55.6516C25.7701 54.9079 26.777 54.4875 27.8287 54.4816H76.661C77.2907 54.4984 77.9071 54.299 78.4077 53.9167C78.9083 53.5344 79.2629 52.9922 79.4125 52.3803C79.4939 51.9945 79.4881 51.5954 79.3956 51.2121C79.3031 50.8288 79.1262 50.471 78.8777 50.1648C78.6293 49.8586 78.3156 49.6118 77.9596 49.4423C77.6036 49.2729 77.2142 49.185 76.8199 49.1852H27.8287C26.7752 49.1852 25.7648 48.7667 25.0199 48.0218C24.275 47.2769 23.8564 46.2665 23.8564 45.213C23.8624 44.1613 24.2828 43.1544 25.0264 42.4107C25.7701 41.667 26.777 41.2466 27.8287 41.2407H76.8199C78.3276 41.2421 79.8176 41.565 81.1906 42.1879C82.5636 42.8108 83.788 43.7193 84.7821 44.8528C85.7761 45.9864 86.5171 47.3189 86.9554 48.7614C87.3937 50.204 87.5193 51.7235 87.3239 53.2184C86.9436 55.8046 85.6363 58.1644 83.6454 59.8583C81.6545 61.5523 79.1158 62.4648 76.5021 62.4261Z" fill="#9C27B0"/>
<path d="M84.7762 44.8462C84.2125 44.2099 83.5741 43.644 82.8748 43.1606C84.3714 45.3245 85.013 47.9662 84.6755 50.5755C84.2941 53.1607 82.9862 55.5193 80.9955 57.2121C79.0047 58.905 76.4667 59.8168 73.8538 59.7779H25.1804C24.7941 59.7724 24.4107 59.7095 24.043 59.5912C24.2855 60.4079 24.7846 61.1246 25.4665 61.6353C26.1484 62.1459 26.9767 62.4232 27.8285 62.4261H76.5019C79.1157 62.4648 81.6543 61.5523 83.6452 59.8583C85.6361 58.1644 86.9434 55.8046 87.3237 53.2184C87.518 51.722 87.3912 50.2014 86.952 48.7578C86.5127 47.3142 85.771 45.9808 84.7762 44.8462Z" fill="#6F1C7D"/>
<path d="M75.4956 50.5093H60.9307V53.1575H75.4956V50.5093Z" fill="#DFEAEF"/>
<path d="M98.0052 71.6948H71.5234V74.343H98.0052V71.6948Z" fill="#DFEAEF"/>
<path d="M68.8757 71.6948H66.2275V74.343H68.8757V71.6948Z" fill="#DFEAEF"/>
<path d="M58.2829 50.5093H55.6348V53.1575H58.2829V50.5093Z" fill="#DFEAEF"/>
</svg>
