<svg width="125" height="125" viewBox="0 0 125 125" fill="none" xmlns="http://www.w3.org/2000/svg">
<rect width="124.501" height="124.501" rx="6" fill="#004D40" fill-opacity="0.25"/>
<path d="M42.4619 42.1353H30.2953C29.6276 42.1382 28.9735 42.42 28.4056 42.9492C27.8378 43.4785 27.3785 44.2346 27.0787 45.1334L20.875 63.814H38.8654L42.4619 42.1353Z" fill="#C0982B"/>
<path d="M62.2505 63.814V42.1353H42.4618L38.8652 63.814H62.2505Z" fill="#6F1C7D"/>
<path d="M85.6362 63.814L82.0396 42.1353H62.251V63.814H85.6362Z" fill="#C0982B"/>
<path d="M103.627 63.814L97.4194 45.1341C97.1204 44.2351 96.6619 43.4785 96.0947 42.9482C95.5276 42.418 94.874 42.1349 94.2065 42.1304H82.0361L85.6365 63.814H103.627Z" fill="#6F1C7D"/>
<path d="M38.8652 63.814V80.488C43.8801 93.5715 55.6818 95.3609 62.2505 84.0377V63.8198L38.8652 63.814ZM85.6357 63.814V80.488C90.8913 89.6441 100.598 86.5766 103.103 74.9687C103.491 73.1677 103.667 71.2679 103.626 69.3739V63.814H85.6357Z" fill="#9C27B0"/>
<path d="M62.2511 64.3323V84.175C68.8197 95.2906 80.6252 93.535 85.6363 80.6865V64.3323H62.2511ZM20.8755 64.3323V69.7875C20.6046 81.7923 29.0205 89.7385 36.0142 84.0838C37.0916 83.2198 38.0576 82.069 38.8659 80.6865V64.3323H20.8755Z" fill="#F2C037"/>
<path d="M20.8749 64.1134L27.0786 45.1756C27.3776 44.2641 27.8361 43.4971 28.4033 42.9595C28.9704 42.422 29.624 42.135 30.2915 42.1304H94.2096C94.8777 42.1339 95.5321 42.4204 96.1 42.958C96.6678 43.4956 97.1269 44.2633 97.4262 45.1756L103.63 64.1134H20.8749ZM20.8749 64.1134V69.6121C20.8305 71.4697 21.0051 73.3244 21.3903 75.0877C23.8846 86.5849 33.5946 89.6473 38.8615 80.5979C43.8764 93.5487 55.6819 95.3183 62.2505 84.1142C68.8192 95.3241 80.6246 93.5487 85.6357 80.5979C86.4476 81.9998 87.4188 83.1658 88.5025 84.0395C95.5 89.722 103.901 81.7068 103.626 69.6121V64.1134H20.8749Z" stroke="#6F1C7D" stroke-width="2.66667" stroke-linecap="round" stroke-linejoin="round"/>
<path d="M38.8652 80.4211V64.0121L42.4618 42.1353M62.2505 83.95V42.1353M85.6357 80.4211V64.0121L82.0354 42.1353" stroke="#6F1C7D" stroke-width="2.66667" stroke-linecap="round" stroke-linejoin="round"/>
</svg>
