<svg width="125" height="125" viewBox="0 0 125 125" fill="none" xmlns="http://www.w3.org/2000/svg">
<rect width="124.501" height="124.501" rx="6" fill="#004D40" fill-opacity="0.25"/>
<g clip-path="url(#clip0_2230_783)">
<path d="M55.2391 49.8838C59.1683 49.8838 62.2511 52.9389 62.2511 52.9389C62.2511 52.9389 65.1577 49.8838 69.2635 49.8838C73.257 49.8838 76.5176 53.3214 76.7311 57.4838C76.8514 59.8352 76.1253 61.6243 75.1017 63.2454C73.0573 66.4837 62.2379 74.6183 62.2379 74.6183C62.2379 74.6183 51.4586 66.5116 49.4008 63.2454C48.3749 61.6172 47.6511 59.8352 47.7713 57.4838C47.9849 53.3211 51.2454 49.8838 55.2391 49.8838Z" fill="#F2C037"/>
<path d="M62.239 76.5746C62.6529 76.5746 63.0665 76.4437 63.4148 76.1819C64.5516 75.3273 74.5838 67.7321 76.757 64.2895C77.6633 62.8542 78.8494 60.5764 78.6859 57.3833C78.414 52.0805 74.2756 47.9268 69.2643 47.9268C66.1766 47.9268 63.6832 49.3285 62.2293 50.3988C60.7496 49.3372 58.2226 47.9268 55.24 47.9268C50.2287 47.9268 46.09 52.0805 45.8184 57.383C45.6554 60.5702 46.8407 62.8502 47.7463 64.288C49.9329 67.7585 59.9302 75.3299 61.063 76.1817C61.4111 76.4437 61.8251 76.5746 62.239 76.5746ZM69.2643 51.8402C72.1423 51.8402 74.6159 54.4168 74.778 57.5838C74.8616 59.2116 74.4637 60.5926 73.4484 62.2009C72.2215 64.1445 66.3552 68.9937 62.2394 72.1596C58.1381 69.0026 52.2918 64.1621 51.0572 62.2025C50.0412 60.5899 49.643 59.2087 49.7264 57.5837C49.8887 54.4167 52.3623 51.8402 55.2401 51.8402C58.2874 51.8402 60.8547 54.309 60.8803 54.3341C61.2545 54.6991 61.7627 54.9061 62.2859 54.8923C62.8089 54.8824 63.3089 54.6665 63.6695 54.2877C63.6864 54.27 66.0836 51.8402 69.2643 51.8402Z" fill="#9C27B0"/>
<path d="M62.2518 96.751C71.4672 96.751 80.1309 93.1623 86.6471 86.6462C87.411 85.8823 87.411 84.6434 86.6471 83.8791C85.8828 83.1151 84.6443 83.1151 83.8799 83.8791C78.1029 89.6564 70.4218 92.8378 62.2517 92.8378C54.0815 92.8378 46.4005 89.6562 40.6234 83.8791C34.8464 78.1021 31.6647 70.421 31.6647 62.2508C31.6647 54.0807 34.8464 46.3997 40.6234 40.6226C46.4007 34.8453 54.0815 31.6639 62.2517 31.6639C70.4218 31.6639 78.1029 34.8456 83.8801 40.6227C91.5962 48.3389 94.6249 59.6853 91.7841 70.2345C91.5031 71.2778 92.1214 72.3514 93.1646 72.6324C94.209 72.9134 95.2815 72.2953 95.5628 71.2518C97.1126 65.4959 97.1471 59.4011 95.6618 53.6267C94.1315 47.6765 91.0143 42.2231 86.6471 37.8557C80.1309 31.3397 71.4672 27.751 62.2518 27.751C53.0364 27.751 44.3727 31.3397 37.8565 37.8557C31.3403 44.3719 27.7518 53.0356 27.7518 62.251C27.7518 71.4664 31.3405 80.1299 37.8565 86.6462C44.3727 93.1623 53.0365 96.751 62.2518 96.751Z" fill="#9C27B0"/>
<path d="M62.2521 88.6687C76.819 88.6687 88.6699 76.8177 88.6699 62.2508C88.6699 47.684 76.819 35.833 62.2521 35.833C52.8277 35.833 44.0492 40.9119 39.3423 49.0879C38.8031 50.0242 39.1254 51.2205 40.0617 51.7597C40.9985 52.2988 42.1941 51.9767 42.7333 51.0404C46.7439 44.0739 54.2232 39.7461 62.2519 39.7461C74.6612 39.7461 84.7567 49.8418 84.7567 62.2508C84.7567 74.6599 74.661 84.7556 62.2519 84.7556C49.8429 84.7556 39.7473 74.6599 39.7473 62.2508C39.7473 61.1703 38.8712 60.2943 37.7908 60.2943C36.7104 60.2943 35.8342 61.1703 35.8342 62.2508C35.8342 76.8178 47.6851 88.6687 62.2521 88.6687Z" fill="#9C27B0"/>
</g>
<defs>
<clipPath id="clip0_2230_783">
<rect width="69" height="69" fill="white" transform="matrix(-1 0 0 1 96.751 27.751)"/>
</clipPath>
</defs>
</svg>
