<svg width="125" height="125" viewBox="0 0 125 125" fill="none" xmlns="http://www.w3.org/2000/svg">
<rect width="124.501" height="124.501" rx="6" fill="#004D40" fill-opacity="0.25"/>
<path d="M89.6103 23.3673C90.4485 22.7896 91.5131 23.6878 91.0849 24.6114L65.4214 79.9544C65.1439 80.5527 64.3734 80.7233 63.8693 80.298L39.3001 59.5691C38.796 59.1438 38.8344 58.3556 39.3775 57.9813L89.6103 23.3673Z" fill="#31CCEC"/>
<path d="M45.3682 53.9146C44.8251 54.2888 44.7869 55.0771 45.291 55.5024L67.9092 74.5864L65.4209 79.9546C65.1435 80.5526 64.3732 80.7231 63.8691 80.2983L39.2998 59.5688C38.7957 59.1436 38.8339 58.3552 39.377 57.981L89.6094 23.3677C89.7057 23.3013 89.8055 23.2547 89.9053 23.2251L45.3682 53.9146Z" fill="#2B869A"/>
<path d="M34.8917 101.132C34.0534 101.71 32.9888 100.812 33.4171 99.8881L59.0806 44.5451C59.358 43.9468 60.1286 43.7762 60.6326 44.2015L85.2019 64.9304C85.706 65.3557 85.6675 66.1439 85.1244 66.5182L34.8917 101.132Z" fill="#9C27B0"/>
<path d="M85.2021 64.9302C85.7062 65.3554 85.668 66.1438 85.125 66.5181L34.8926 101.132C34.0543 101.71 32.9897 100.812 33.418 99.8882L37.2275 91.6704L82.0342 62.2583L85.2021 64.9302Z" fill="#6F1C7D"/>
<path d="M59.6016 44.0448C59.9318 43.9071 60.3303 43.9469 60.6328 44.2021L75.9902 57.1601L65.4209 79.955C65.1435 80.5532 64.3732 80.7238 63.8691 80.2988L48.5098 67.3407L59.0811 44.5458C59.1282 44.4442 59.1898 44.3553 59.2617 44.2792L59.6016 44.0448Z" fill="#F2C037"/>
<path d="M65.4209 79.9561C65.1435 80.5542 64.3732 80.7248 63.8691 80.2998L59.7959 76.8633L69.9707 70.1416L65.4209 79.9561ZM65.1367 73.3281C65.0952 73.3556 61.8362 75.5114 59.7949 76.8623L48.5098 67.3418L51.4717 60.9541L65.1367 73.3281Z" fill="#C0982B"/>
</svg>
