<svg width="125" height="125" viewBox="0 0 125 125" fill="none" xmlns="http://www.w3.org/2000/svg">
<rect width="124.501" height="124.501" rx="6" fill="#004D40" fill-opacity="0.25"/>
<path d="M63.6613 97.4269C62.5649 97.4269 61.6266 97.0368 60.8464 96.2567C60.0663 95.4765 59.6756 94.5376 59.6742 93.4398V70.9624C59.0762 70.5969 58.5944 70.1237 58.2289 69.5429C57.8634 68.9622 57.6807 68.289 57.6807 67.5235V61.5428C57.6807 60.4463 58.0714 59.508 58.8529 58.7279C59.6344 57.9477 60.5727 57.557 61.6678 57.5557H93.5648C94.6612 57.5557 95.6002 57.9464 96.3817 58.7279C97.1632 59.5094 97.5532 60.4477 97.5519 61.5428V67.5235C97.5519 68.2877 97.3692 68.9608 97.0037 69.5429C96.6382 70.1251 96.1564 70.5975 95.5583 70.9604V93.4398C95.5583 94.5362 95.1683 95.4752 94.3881 96.2567C93.608 97.0382 92.669 97.4282 91.5712 97.4269H63.6613ZM63.2814 67.5235H88.5616V61.5428H63.2814V67.5235ZM71.4851 81.2462H79.4594C80.0242 81.2462 80.498 81.0548 80.8808 80.6721C81.2635 80.2893 81.4543 79.8162 81.4529 79.2527C81.4516 78.6891 81.2602 78.216 80.8788 77.8332C80.4974 77.4505 80.0242 77.2591 79.4594 77.2591H71.4851C70.9203 77.2591 70.4471 77.4505 70.0657 77.8332C69.6843 78.216 69.4929 78.6891 69.4916 79.2527C69.4902 79.8162 69.6816 80.29 70.0657 80.6741C70.4498 81.0582 70.9229 81.2489 71.4851 81.2462Z" fill="#26A69A"/>
<path d="M94.5391 57.6689C95.2282 57.8361 95.8427 58.1884 96.3818 58.7275C97.1633 59.509 97.5531 60.4478 97.5518 61.543V67.5234C97.5518 68.2876 97.3694 68.9609 97.0039 69.543C96.6385 70.125 96.1565 70.5972 95.5586 70.96V93.4395C95.5586 94.5359 95.1678 95.4754 94.3877 96.2568C93.6076 97.0381 92.6689 97.4281 91.5713 97.4268H63.6611C62.5649 97.4267 61.6267 97.0368 60.8467 96.2568C60.5955 96.0056 60.3853 95.7373 60.2148 95.4531C60.5244 95.5282 60.8494 95.5664 61.1895 95.5664H89.0986C90.1964 95.5677 91.1359 95.178 91.916 94.3965C92.696 93.6151 93.0858 92.6763 93.0859 91.5801V69.1006C93.684 68.7378 94.1658 68.2647 94.5312 67.6826C94.8967 67.1005 95.0791 66.4273 95.0791 65.6631V59.6826C95.08 58.9387 94.8993 58.2681 94.5391 57.6689Z" fill="#208178"/>
<path d="M66.4745 32.1105C64.1215 32.1105 61.7971 32.4123 59.5014 33.0161C57.2057 33.6199 55.0248 34.4945 52.9587 35.6401C52.0978 36.0992 51.1944 36.2576 50.2486 36.1153C49.3028 35.973 48.5992 35.4989 48.1377 34.6931C47.6212 33.7748 47.5064 32.8428 47.7934 31.897C48.0803 30.9511 48.683 30.2188 49.6012 29.7C52.1839 28.2078 54.8962 27.0886 57.7383 26.3425C60.5804 25.5964 63.4924 25.2234 66.4745 25.2234C71.0085 25.2234 75.3566 26.0705 79.5187 27.7647C83.6807 29.4589 87.3963 31.9119 90.6654 35.1235V33.8322C90.6654 32.8566 90.9959 32.0393 91.6571 31.3804C92.3183 30.7216 93.1355 30.391 94.1089 30.3887C95.0823 30.3864 95.9007 30.717 96.5641 31.3804C97.2276 32.0439 97.557 32.8611 97.5524 33.8322V45.8846C97.5524 46.8603 97.223 47.6787 96.5641 48.3398C95.9053 49.001 95.0869 49.3304 94.1089 49.3281H82.0565C81.0809 49.3281 80.2636 48.9975 79.6047 48.3364C78.9459 47.6752 78.6153 46.858 78.613 45.8846C78.6107 44.9112 78.9413 44.0939 79.6047 43.4328C80.2682 42.7716 81.0855 42.4411 82.0565 42.4411H87.9966C85.3566 39.1697 82.1713 36.6307 78.4408 34.824C74.7103 33.0173 70.7216 32.1127 66.4745 32.1105Z" fill="#31CCEC"/>
<path d="M79.7441 43.2996C79.7266 43.4508 79.7184 43.6067 79.7188 43.7664C79.7211 44.7395 80.0513 45.5565 80.71 46.2175C81.3688 46.8787 82.1864 47.2097 83.1621 47.2097H95.2139C96.1208 47.2118 96.89 46.9275 97.5225 46.3591C97.431 47.1284 97.1124 47.7887 96.5635 48.3396C95.9047 49.0007 95.0862 49.3301 94.1084 49.3279H82.0557C81.08 49.3279 80.2624 48.9978 79.6035 48.3367C78.9447 47.6755 78.6146 46.8579 78.6123 45.8845C78.61 44.9112 78.9401 44.0935 79.6035 43.4324C79.6496 43.3865 79.6966 43.3423 79.7441 43.2996ZM67.5801 29.9919C71.8269 29.9943 75.8156 30.8983 79.5459 32.7048C83.2763 34.5115 86.9557 39.1737 89.5957 42.4451H83.6553C83.631 42.4451 83.6067 42.4433 83.582 42.4412H87.9961C85.3561 39.1698 82.1699 36.6307 78.4395 34.824C74.7091 33.0174 70.7205 32.1124 66.4736 32.1101C64.1206 32.1101 61.7957 32.4126 59.5 33.0164C57.2045 33.6201 55.024 34.4949 52.958 35.6404C52.0972 36.0995 51.1938 36.2572 50.248 36.115C49.3022 35.9727 48.5982 35.4989 48.1367 34.6931C47.6203 33.775 47.5052 32.8429 47.792 31.8972C47.9824 31.2696 48.3128 30.7362 48.7812 30.2966C48.6671 31.065 48.8214 31.824 49.2432 32.574C49.7045 33.3796 50.4079 33.8544 51.3535 33.9968C52.2993 34.1392 53.2036 33.9804 54.0645 33.5212C56.1304 32.3758 58.311 31.5009 60.6064 30.8972C62.9021 30.2935 65.227 29.9919 67.5801 29.9919Z" fill="#2B869A"/>
<path d="M42.587 73.3465C40.1467 69.1569 38.9265 64.6229 38.9265 59.7446C38.9265 58.0228 39.0987 56.3298 39.4431 54.6654C39.7874 53.001 40.2752 51.3653 40.9066 49.7583L43.8336 54.8376C44.2973 55.6456 45.0009 56.1771 45.9445 56.4319C46.888 56.6867 47.7626 56.5857 48.5684 56.1289C49.3742 55.672 49.9057 54.9696 50.1628 54.0214C50.4199 53.0733 50.3189 52.1975 49.8598 51.394L43.8336 41.0634C43.3767 40.2622 42.6742 39.7319 41.7261 39.4725C40.778 39.2131 39.9022 39.313 39.0987 39.7721L28.682 45.7983C27.8762 46.2574 27.3448 46.9599 27.0877 47.9057C26.8305 48.8515 26.9316 49.7274 27.3907 50.5331C27.8498 51.3389 28.5385 51.8704 29.4568 52.1275C30.3751 52.3846 31.236 52.2549 32.0395 51.7384L33.1586 51.0497C32.8166 52.4845 32.5445 53.9193 32.3425 55.3541C32.1405 56.7889 32.0395 58.2524 32.0395 59.7446C32.0395 65.8856 33.5604 71.5961 36.6021 76.8762C39.6439 82.1562 43.8336 86.3459 49.171 89.4451C50.0342 89.9065 50.9387 90.0075 51.8845 89.7481C52.8304 89.4887 53.5329 88.9285 53.992 88.0676C54.4534 87.2665 54.5257 86.4205 54.2089 85.5298C53.8921 84.639 53.332 83.9354 52.5285 83.4189C48.3412 80.8936 45.0273 77.5362 42.587 73.3465Z" fill="#F2C037"/>
<path d="M40.8965 49.7783C40.2691 51.3786 39.7853 53.0078 39.4424 54.665C39.0981 56.3293 38.9258 58.0225 38.9258 59.7441C38.9258 64.6225 40.1456 69.157 42.5859 73.3467C45.0262 77.5362 48.3401 80.8937 52.5273 83.4189C53.3307 83.9354 53.8912 84.6388 54.208 85.5293C54.5248 86.42 54.4526 87.2662 53.9912 88.0674C53.5321 88.9282 52.8296 89.4886 51.8838 89.748C50.938 90.0075 50.0331 89.9067 49.1699 89.4453C48.9755 89.3324 48.7831 89.2173 48.5918 89.1016C49.027 89.1433 49.4716 89.104 49.9258 88.9795C50.8715 88.7201 51.5741 88.1595 52.0332 87.2988C52.4946 86.4977 52.5677 85.6514 52.251 84.7607C51.9342 83.87 51.3738 83.1659 50.5703 82.6494C46.383 80.1242 43.0692 76.7668 40.6289 72.5771C38.1887 68.3876 36.9678 63.8538 36.9678 58.9756C36.9678 57.2539 37.1401 55.5608 37.4844 53.8965C37.8287 52.2322 39.1362 49.4254 39.7676 47.8184L40.8965 49.7783ZM41.0742 39.3506C41.2873 39.372 41.5047 39.4122 41.7256 39.4727C42.6735 39.7321 43.3762 40.2624 43.833 41.0635L49.8594 51.3936C50.3185 52.197 50.4192 53.0734 50.1621 54.0215C49.905 54.9696 49.3732 55.6721 48.5674 56.1289C47.7617 56.5857 46.8868 56.6864 45.9434 56.4316C45.4368 56.2948 45.0001 56.0776 44.6318 55.7812C45.3319 55.8501 45.9915 55.7102 46.6104 55.3594C47.4159 54.9025 47.947 54.1999 48.2041 53.252C48.4611 52.304 48.3605 51.4284 47.9014 50.625L41.875 40.2939C41.6618 39.9202 41.3943 39.6064 41.0742 39.3506Z" fill="#C0982B"/>
</svg>
